<svg width="20" height="20" viewBox="0 0 20 20" fill="none" xmlns="http://www.w3.org/2000/svg">
<path d="M1.21265 2.15955C0.887656 1.9033 0.415792 1.96268 0.159547 2.28767C-0.0966972 2.61266 -0.0373235 3.08453 0.287669 3.34077L18.7873 17.8405C19.1123 18.0967 19.5841 18.0373 19.8404 17.7123C20.0966 17.3873 20.0372 16.9155 19.7122 16.6592L14.753 12.7718C15.228 11.9593 15.4998 11.0125 15.4998 10V8.75003C15.4998 8.33441 15.1655 8.00004 14.7499 8.00004C14.3342 8.00004 13.9999 8.33441 13.9999 8.75003V10C13.9999 10.6625 13.8405 11.2843 13.5561 11.8343L12.9999 11.4V5.00011C12.9999 3.3439 11.6562 2.00018 9.99996 2.00018C8.34374 2.00018 7.00002 3.3439 7.00002 5.00011V6.69695L1.21265 2.15955ZM10.7499 15.4499C11.3874 15.3624 11.9905 15.1655 12.5405 14.8811L11.1937 13.8218C10.8156 13.9374 10.4156 13.9999 9.99996 13.9999C7.79063 13.9999 6.00004 12.2093 6.00004 10V9.72813L4.52195 8.56253C4.50633 8.62191 4.50008 8.6844 4.50008 8.75003V10C4.50008 12.7843 6.56878 15.0843 9.24997 15.4499V16.4999H7.75001C7.33439 16.4999 7.00002 16.8342 7.00002 17.2498C7.00002 17.6655 7.33439 17.9998 7.75001 17.9998H9.99996H12.2499C12.6655 17.9998 12.9999 17.6655 12.9999 17.2498C12.9999 16.8342 12.6655 16.4999 12.2499 16.4999H10.7499V15.4499Z" fill="#EFEFEF"/>
</svg>
