<svg width="20" height="20" viewBox="0 0 20 20" fill="none" xmlns="http://www.w3.org/2000/svg">
<g clip-path="url(#clip0_4_16)">
<path d="M-0.484189 0.199434C-0.89043 -0.120872 -1.48026 -0.0466544 -1.80057 0.359587C-2.12087 0.765828 -2.04665 1.35566 -1.64041 1.67596L21.4841 19.8006C21.8903 20.1209 22.4802 20.0467 22.8005 19.6404C23.1208 19.2342 23.0465 18.6443 22.6403 18.324L16.4412 13.4648C17.035 12.4492 17.3748 11.2656 17.3748 10V8.43753C17.3748 7.91801 16.9568 7.50005 16.4373 7.50005C15.9178 7.50005 15.4998 7.91801 15.4998 8.43753V10C15.4998 10.8281 15.3006 11.6054 14.9452 12.2929L14.2499 11.75V3.75014C14.2499 1.67987 12.5702 0.000219565 10.4999 0.000219565C8.42968 0.000219565 6.75003 1.67987 6.75003 3.75014V5.87118L-0.484189 0.199434ZM11.4374 16.8124C12.2343 16.703 12.9882 16.4569 13.6757 16.1014L11.9921 14.7772C11.5195 14.9218 11.0195 14.9999 10.4999 14.9999C7.73829 14.9999 5.50005 12.7617 5.50005 10V9.66016L3.65244 8.20316C3.63291 8.27738 3.6251 8.3555 3.6251 8.43753V10C3.6251 13.4804 6.21098 16.3553 9.56247 16.8124V18.1248H7.68751C7.16799 18.1248 6.75003 18.5428 6.75003 19.0623C6.75003 19.5818 7.16799 19.9998 7.68751 19.9998H10.4999H13.3124C13.8319 19.9998 14.2499 19.5818 14.2499 19.0623C14.2499 18.5428 13.8319 18.1248 13.3124 18.1248H11.4374V16.8124Z" fill="#EFEFEF"/>
</g>
<defs>
<clipPath id="clip0_4_16">
<rect width="20" height="20" fill="white"/>
</clipPath>
</defs>
</svg>
