<svg width="20" height="20" viewBox="0 0 20 20" fill="none" xmlns="http://www.w3.org/2000/svg">
<path fill-rule="evenodd" clip-rule="evenodd" d="M10 18C14.4183 18 18 14.4183 18 10C18 5.58172 14.4183 2 10 2C5.58172 2 2 5.58172 2 10C2 14.4183 5.58172 18 10 18ZM10 16.5C13.5899 16.5 16.5 13.5899 16.5 10C16.5 6.41015 13.5899 3.5 10 3.5C6.41015 3.5 3.5 6.41015 3.5 10C3.5 13.5899 6.41015 16.5 10 16.5Z" fill="#EFEFEF"/>
<path d="M13.5 9.13397C14.1667 9.51887 14.1667 10.4811 13.5 10.866L9 13.4641C8.33333 13.849 7.5 13.3679 7.5 12.5981L7.5 7.40192C7.5 6.63212 8.33333 6.151 9 6.5359L13.5 9.13397Z" fill="#EFEFEF"/>
</svg>
