<svg width="20" height="20" viewBox="0 0 20 20" fill="none" xmlns="http://www.w3.org/2000/svg">
<g clip-path="url(#clip0_24_90)">
<path d="M18 9.49962C18 13.09 14.419 15.9992 10.0005 15.9992C8.84116 15.9992 7.74122 15.7993 6.74753 15.4399C6.37567 15.7118 5.76946 16.0836 5.05075 16.3961C4.30079 16.7211 3.39772 16.9992 2.5009 16.9992C2.29778 16.9992 2.11654 16.8773 2.03842 16.6898C1.9603 16.5023 2.00405 16.2899 2.14467 16.1461L2.15404 16.1367C2.16342 16.1274 2.17592 16.1149 2.19467 16.093C2.22904 16.0555 2.28216 15.9961 2.34778 15.9149C2.4759 15.7586 2.64776 15.5274 2.82275 15.2399C3.13524 14.7212 3.43209 14.04 3.49147 13.2744C2.55402 12.212 2.00093 10.9089 2.00093 9.49962C2.00093 5.90921 5.58197 3 10.0005 3C14.419 3 18 5.90921 18 9.49962Z" fill="#EFEFEF"/>
</g>
<defs>
<clipPath id="clip0_24_90">
<rect width="20" height="20" fill="white"/>
</clipPath>
</defs>
</svg>
