<svg width="20" height="20" viewBox="0 0 20 20" fill="none" xmlns="http://www.w3.org/2000/svg">
<g clip-path="url(#clip0_24_77)">
<path fill-rule="evenodd" clip-rule="evenodd" d="M10 20C15.5228 20 20 15.5228 20 10C20 4.47715 15.5228 0 10 0C4.47715 0 0 4.47715 0 10C0 15.5228 4.47715 20 10 20ZM10 18C14.4183 18 18 14.4183 18 10C18 5.58172 14.4183 2 10 2C5.58172 2 2 5.58172 2 10C2 14.4183 5.58172 18 10 18Z" fill="#EFEFEF"/>
<g clip-path="url(#clip1_24_77)">
<path d="M7.71094 4.91406C7.36406 4.70078 6.92813 4.69375 6.57422 4.89297C6.22031 5.09219 6 5.46719 6 5.875V14.125C6 14.5328 6.22031 14.9078 6.57422 15.107C6.92813 15.3063 7.36406 15.2969 7.71094 15.0859L14.4609 10.9609C14.7961 10.757 15 10.3938 15 10C15 9.60625 14.7961 9.24531 14.4609 9.03906L7.71094 4.91406Z" fill="#EFEFEF"/>
</g>
</g>
<defs>
<clipPath id="clip0_24_77">
<rect width="20" height="20" fill="white"/>
</clipPath>
<clipPath id="clip1_24_77">
<rect width="9" height="12" fill="white" transform="translate(6 4)"/>
</clipPath>
</defs>
</svg>
