<svg width="20" height="20" viewBox="0 0 20 20" fill="none" xmlns="http://www.w3.org/2000/svg">
<g clip-path="url(#clip0_24_90)">
<g clip-path="url(#clip1_24_90)">
<path d="M20 9.375C20 13.8633 15.5234 17.5 10 17.5C8.55078 17.5 7.17578 17.25 5.93359 16.8008C5.46875 17.1406 4.71094 17.6055 3.8125 17.9961C2.875 18.4023 1.74609 18.75 0.624999 18.75C0.371092 18.75 0.14453 18.5977 0.0468737 18.3633C-0.0507825 18.1289 0.00390498 17.8633 0.179686 17.6836L0.191405 17.6719C0.203124 17.6602 0.218749 17.6445 0.242186 17.6172C0.285155 17.5703 0.351561 17.4961 0.433592 17.3945C0.593749 17.1992 0.808592 16.9102 1.02734 16.5508C1.41797 15.9023 1.78906 15.0508 1.86328 14.0938C0.691405 12.7656 -1.26555e-06 11.1367 -1.26555e-06 9.375C-1.26555e-06 4.88672 4.47656 1.25 10 1.25C15.5234 1.25 20 4.88672 20 9.375Z" fill="#EFEFEF"/>
</g>
</g>
<defs>
<clipPath id="clip0_24_90">
<rect width="20" height="20" fill="white"/>
</clipPath>
<clipPath id="clip1_24_90">
<rect width="20" height="20" fill="white"/>
</clipPath>
</defs>
</svg>
