<svg width="28" height="28" viewBox="0 0 28 28" fill="none" xmlns="http://www.w3.org/2000/svg">
<path fill-rule="evenodd" clip-rule="evenodd" d="M13.9717 19.8252C16.0366 19.8252 17.7107 18.1513 17.7107 16.0863C17.7107 14.0215 16.0366 12.3474 13.9717 12.3474C11.9067 12.3474 10.2326 14.0215 10.2326 16.0863C10.2326 18.1513 11.9067 19.8252 13.9717 19.8252ZM20.566 8.00426C20.4072 8.38194 20.2153 8.74189 19.9964 9.08286C21.9797 10.7782 23.2385 13.2963 23.2385 16.1099C23.2385 19.8403 21.0271 23.0524 17.8448 24.5129C19.0358 24.2797 20.1893 23.9419 21.2944 23.5075C23.217 21.6188 24.4098 18.9899 24.4098 16.082C24.4098 12.8223 22.9113 9.91306 20.566 8.00426ZM21.1167 4.04066V4.94532C24.7865 7.29116 27.2196 11.4014 27.2196 16.08C27.2196 17.6385 26.9488 19.1337 26.4529 20.5218C26.8362 20.2157 27.208 19.8957 27.5676 19.5627C27.8498 18.4547 28 17.2941 28 16.0983C28 10.9648 25.2365 6.47759 21.1167 4.04066ZM6.95221 4.92013V4C2.79414 6.42749 0 10.9363 0 16.0983C0 17.3112 0.154407 18.4881 0.444346 19.6104C0.817633 19.9536 1.2036 20.2835 1.60218 20.5979C1.08902 19.1883 0.808743 17.6669 0.808743 16.08C0.808743 11.3843 3.25994 7.26159 6.95221 4.92013ZM20.9834 16.0885C20.9834 13.9491 20.0215 12.0351 18.5078 10.7523C18.113 11.0745 17.6822 11.3537 17.2234 11.5855C18.6292 12.5919 19.5464 14.2373 19.5464 16.098C19.5464 19.1611 17.0631 21.6445 13.9997 21.6445C10.9363 21.6445 8.45282 19.1611 8.45282 16.098C8.45282 14.2245 9.38272 12.5691 10.8051 11.5648C10.3439 11.328 9.91118 11.0436 9.51556 10.7153C7.97681 11.9981 6.99715 13.9287 6.99715 16.0885C6.99715 19.9506 10.1281 23.0817 13.9904 23.0817C17.8525 23.0817 20.9834 19.9506 20.9834 16.0885ZM4.75205 16.1099C4.75205 13.2724 6.03191 10.7347 8.04447 9.03918C7.82921 8.6986 7.64183 8.33887 7.48638 7.96223C5.11107 9.87021 3.59004 12.7983 3.59004 16.082C3.59004 19.0024 4.79331 21.6415 6.73047 23.532C7.83201 23.9605 8.98106 24.2938 10.1673 24.5226C6.97339 23.0669 4.75205 19.8489 4.75205 16.1099Z" fill="#DFDFDF"/>
</svg>
