<svg width="144" height="144" viewBox="0 0 144 144" fill="none" xmlns="http://www.w3.org/2000/svg">
<rect width="144" height="144" rx="8" fill="#C41F30"/>
<path d="M71.75 36C64.2969 36 58.25 42.0469 58.25 49.5V72C58.25 79.4531 64.2969 85.5 71.75 85.5C79.2031 85.5 85.25 79.4531 85.25 72V49.5C85.25 42.0469 79.2031 36 71.75 36ZM53.75 66.375C53.75 64.5047 52.2453 63 50.375 63C48.5047 63 47 64.5047 47 66.375V72C47 84.5297 56.3094 94.8797 68.375 96.525V101.25H61.625C59.7547 101.25 58.25 102.755 58.25 104.625C58.25 106.495 59.7547 108 61.625 108H71.75H81.875C83.7453 108 85.25 106.495 85.25 104.625C85.25 102.755 83.7453 101.25 81.875 101.25H75.125V96.525C87.1906 94.8797 96.5 84.5297 96.5 72V66.375C96.5 64.5047 94.9953 63 93.125 63C91.2547 63 89.75 64.5047 89.75 66.375V72C89.75 81.9422 81.6922 90 71.75 90C61.8078 90 53.75 81.9422 53.75 72V66.375Z" fill="white"/>
</svg>
