<svg width="144" height="144" viewBox="0 0 144 144" fill="none" xmlns="http://www.w3.org/2000/svg">
<rect width="144" height="144" rx="8" fill="#C41F30"/>
<path d="M71.75 28C64.2969 28 58.25 34.0469 58.25 41.5V64C58.25 71.4531 64.2969 77.5 71.75 77.5C79.2031 77.5 85.25 71.4531 85.25 64V41.5C85.25 34.0469 79.2031 28 71.75 28ZM53.75 58.375C53.75 56.5047 52.2453 55 50.375 55C48.5047 55 47 56.5047 47 58.375V64C47 76.5297 56.3094 86.8797 68.375 88.525V93.25H61.625C59.7547 93.25 58.25 94.7547 58.25 96.625C58.25 98.4953 59.7547 100 61.625 100H71.75H81.875C83.7453 100 85.25 98.4953 85.25 96.625C85.25 94.7547 83.7453 93.25 81.875 93.25H75.125V88.525C87.1906 86.8797 96.5 76.5297 96.5 64V58.375C96.5 56.5047 94.9953 55 93.125 55C91.2547 55 89.75 56.5047 89.75 58.375V64C89.75 73.9422 81.6922 82 71.75 82C61.8078 82 53.75 73.9422 53.75 64V58.375Z" fill="white"/>
</svg>
