<svg width="144" height="144" viewBox="0 0 144 144" fill="none" xmlns="http://www.w3.org/2000/svg">
<path d="M33.4569 28.718C31.9945 27.5649 29.8711 27.832 28.718 29.2945C27.5649 30.757 27.832 32.8804 29.2945 34.0335L112.543 99.282C114.005 100.435 116.129 100.168 117.282 98.7055C118.435 97.243 118.168 95.1196 116.705 93.9665L94.3884 76.4732C96.5258 72.817 97.7493 68.5562 97.7493 64V58.3751C97.7493 56.5049 96.2446 55.0002 94.3743 55.0002C92.5041 55.0002 90.9994 56.5049 90.9994 58.3751V64C90.9994 66.9812 90.2822 69.7796 89.0026 72.2545L86.4995 70.2999V41.5005C86.4995 34.0475 80.4528 28.0008 72.9998 28.0008C65.5468 28.0008 59.5001 34.0475 59.5001 41.5005V49.1363L33.4569 28.718ZM76.3747 88.5245C79.2434 88.1307 81.9574 87.2448 84.4324 85.9651L78.3716 81.1981C76.67 81.7184 74.8701 81.9996 72.9998 81.9996C63.0578 81.9996 55.0002 73.942 55.0002 64V62.7766L48.3488 57.5314C48.2785 57.7986 48.2503 58.0798 48.2503 58.3751V64C48.2503 76.5294 57.5595 86.8792 69.6249 88.5245V93.2494H62.875C61.0048 93.2494 59.5001 94.754 59.5001 96.6243C59.5001 98.4946 61.0048 99.9992 62.875 99.9992H72.9998H83.1246C84.9949 99.9992 86.4995 98.4946 86.4995 96.6243C86.4995 94.754 84.9949 93.2494 83.1246 93.2494H76.3747V88.5245Z" fill="#A6A6A6"/>
</svg>
