<svg width="144" height="144" viewBox="0 0 144 144" fill="none" xmlns="http://www.w3.org/2000/svg">
<rect width="144" height="144" rx="8" fill="#C41F30"/>
<path fill-rule="evenodd" clip-rule="evenodd" d="M72 108C91.8823 108 108 91.8823 108 72C108 52.1177 91.8823 36 72 36C52.1177 36 36 52.1177 36 72C36 91.8823 52.1177 108 72 108ZM72 102C88.5685 102 102 88.5685 102 72C102 55.4315 88.5685 42 72 42C55.4315 42 42 55.4315 42 72C42 88.5685 55.4315 102 72 102Z" fill="white"/>
<circle cx="72" cy="72" r="24" fill="white"/>
</svg>
