<svg width="72" height="72" viewBox="0 0 72 72" fill="none" xmlns="http://www.w3.org/2000/svg">
<path d="M36.375 18C32.6484 18 29.625 21.0234 29.625 24.75V36C29.625 39.7266 32.6484 42.75 36.375 42.75C40.1016 42.75 43.125 39.7266 43.125 36V24.75C43.125 21.0234 40.1016 18 36.375 18ZM27.375 33.1875C27.375 32.2523 26.6227 31.5 25.6875 31.5C24.7523 31.5 24 32.2523 24 33.1875V36C24 42.2648 28.6547 47.4398 34.6875 48.2625V50.625H31.3125C30.3773 50.625 29.625 51.3773 29.625 52.3125C29.625 53.2477 30.3773 54 31.3125 54H36.375H41.4375C42.3727 54 43.125 53.2477 43.125 52.3125C43.125 51.3773 42.3727 50.625 41.4375 50.625H38.0625V48.2625C44.0953 47.4398 48.75 42.2648 48.75 36V33.1875C48.75 32.2523 47.9977 31.5 47.0625 31.5C46.1273 31.5 45.375 32.2523 45.375 33.1875V36C45.375 40.9711 41.3461 45 36.375 45C31.4039 45 27.375 40.9711 27.375 36V33.1875Z" fill="#A6A6A6"/>
</svg>
