<svg width="144" height="144" viewBox="0 0 144 144" fill="none" xmlns="http://www.w3.org/2000/svg">
<rect width="144" height="144" rx="8" fill="#C41F30"/>
<path d="M32.4569 28.718C30.9945 27.5649 28.8711 27.832 27.718 29.2945C26.5649 30.757 26.832 32.8804 28.2945 34.0335L111.543 99.282C113.005 100.435 115.129 100.168 116.282 98.7055C117.435 97.243 117.168 95.1196 115.705 93.9665L93.3884 76.4732C95.5258 72.817 96.7493 68.5562 96.7493 64V58.3751C96.7493 56.5049 95.2446 55.0002 93.3743 55.0002C91.5041 55.0002 89.9994 56.5049 89.9994 58.3751V64C89.9994 66.9812 89.2822 69.7796 88.0026 72.2545L85.4995 70.2999V41.5005C85.4995 34.0475 79.4528 28.0008 71.9998 28.0008C64.5468 28.0008 58.5001 34.0475 58.5001 41.5005V49.1363L32.4569 28.718ZM75.3747 88.5245C78.2434 88.1307 80.9574 87.2448 83.4324 85.9651L77.3716 81.1981C75.67 81.7184 73.8701 81.9996 71.9998 81.9996C62.0578 81.9996 54.0002 73.942 54.0002 64V62.7766L47.3488 57.5314C47.2785 57.7986 47.2503 58.0798 47.2503 58.3751V64C47.2503 76.5294 56.5595 86.8792 68.6249 88.5245V93.2494H61.875C60.0048 93.2494 58.5001 94.754 58.5001 96.6243C58.5001 98.4946 60.0048 99.9992 61.875 99.9992H71.9998H82.1246C83.9949 99.9992 85.4995 98.4946 85.4995 96.6243C85.4995 94.754 83.9949 93.2494 82.1246 93.2494H75.3747V88.5245Z" fill="white"/>
</svg>
