<svg width="144" height="144" viewBox="0 0 144 144" fill="none" xmlns="http://www.w3.org/2000/svg">
<rect width="144" height="144" rx="8" fill="#00A396"/>
<g clip-path="url(#clip0_24_87)">
<path d="M108 61.75C108 77.9078 91.8844 91 72 91C66.7828 91 61.8328 90.1 57.3609 88.4828C55.6875 89.7062 52.9594 91.3797 49.725 92.7859C46.35 94.2484 42.2859 95.5 38.25 95.5C37.3359 95.5 36.5203 94.9516 36.1688 94.1078C35.8172 93.2641 36.0141 92.3078 36.6469 91.6609L36.6891 91.6187C36.7313 91.5766 36.7875 91.5203 36.8719 91.4219C37.0266 91.2531 37.2656 90.9859 37.5609 90.6203C38.1375 89.9172 38.9109 88.8766 39.6984 87.5828C41.1047 85.2484 42.4406 82.1828 42.7078 78.7375C38.4891 73.9562 36 68.0922 36 61.75C36 45.5922 52.1156 32.5 72 32.5C91.8844 32.5 108 45.5922 108 61.75Z" fill="white"/>
</g>
<defs>
<clipPath id="clip0_24_87">
<rect width="72" height="72" fill="white" transform="translate(36 28)"/>
</clipPath>
</defs>
</svg>
