<svg width="72" height="72" viewBox="0 0 72 72" fill="none" xmlns="http://www.w3.org/2000/svg">
<path d="M16.7285 18.359C15.9972 17.7824 14.9355 17.916 14.359 18.6473C13.7824 19.3785 13.916 20.4402 14.6473 21.0167L56.2713 53.641C57.0026 54.2176 58.0643 54.084 58.6408 53.3527C59.2174 52.6215 59.0838 51.5598 58.3525 50.9833L47.1942 42.2366C48.2629 40.4085 48.8746 38.2781 48.8746 36V33.1876C48.8746 32.2524 48.1223 31.5001 47.1872 31.5001C46.252 31.5001 45.4997 32.2524 45.4997 33.1876V36C45.4997 37.4906 45.1411 38.8898 44.5013 40.1273L43.2498 39.1499V24.7502C43.2498 21.0238 40.2264 18.0004 36.4999 18.0004C32.7734 18.0004 29.75 21.0238 29.75 24.7502V28.5681L16.7285 18.359ZM38.1874 48.2622C39.6217 48.0654 40.9787 47.6224 42.2162 46.9826L39.1858 44.599C38.335 44.8592 37.435 44.9998 36.4999 44.9998C31.5289 44.9998 27.5001 40.971 27.5001 36V35.3883L24.1744 32.7657C24.1392 32.8993 24.1252 33.0399 24.1252 33.1876V36C24.1252 42.2647 28.7798 47.4396 34.8124 48.2622V50.6247H31.4375C30.5024 50.6247 29.75 51.377 29.75 52.3121C29.75 53.2473 30.5024 53.9996 31.4375 53.9996H36.4999H41.5623C42.4974 53.9996 43.2498 53.2473 43.2498 52.3121C43.2498 51.377 42.4974 50.6247 41.5623 50.6247H38.1874V48.2622Z" fill="#A6A6A6"/>
</svg>
