<svg width="144" height="144" viewBox="0 0 144 144" fill="none" xmlns="http://www.w3.org/2000/svg">
<rect width="144" height="144" rx="8" fill="#C41F30"/>
<path d="M32.4569 36.718C30.9945 35.5649 28.8711 35.832 27.718 37.2945C26.5649 38.757 26.832 40.8804 28.2945 42.0335L111.543 107.282C113.005 108.435 115.129 108.168 116.282 106.705C117.435 105.243 117.168 103.12 115.705 101.967L93.3884 84.4732C95.5258 80.817 96.7493 76.5562 96.7493 72V66.3751C96.7493 64.5049 95.2446 63.0002 93.3743 63.0002C91.5041 63.0002 89.9994 64.5049 89.9994 66.3751V72C89.9994 74.9812 89.2822 77.7796 88.0026 80.2545L85.4995 78.2999V49.5005C85.4995 42.0475 79.4528 36.0008 71.9998 36.0008C64.5468 36.0008 58.5001 42.0475 58.5001 49.5005V57.1363L32.4569 36.718ZM75.3747 96.5245C78.2434 96.1307 80.9574 95.2448 83.4324 93.9651L77.3716 89.1981C75.67 89.7184 73.8701 89.9996 71.9998 89.9996C62.0578 89.9996 54.0002 81.942 54.0002 72V70.7766L47.3488 65.5314C47.2785 65.7986 47.2503 66.0798 47.2503 66.3751V72C47.2503 84.5294 56.5595 94.8792 68.6249 96.5245V101.249H61.875C60.0048 101.249 58.5001 102.754 58.5001 104.624C58.5001 106.495 60.0048 107.999 61.875 107.999H71.9998H82.1246C83.9949 107.999 85.4995 106.495 85.4995 104.624C85.4995 102.754 83.9949 101.249 82.1246 101.249H75.3747V96.5245Z" fill="white"/>
</svg>
