<svg width="144" height="144" viewBox="0 0 144 144" fill="none" xmlns="http://www.w3.org/2000/svg">
<path d="M33.4569 36.718C31.9945 35.5649 29.8711 35.832 28.718 37.2945C27.5649 38.757 27.832 40.8804 29.2945 42.0335L112.543 107.282C114.005 108.435 116.129 108.168 117.282 106.705C118.435 105.243 118.168 103.12 116.705 101.967L94.3884 84.4732C96.5258 80.817 97.7493 76.5562 97.7493 72V66.3751C97.7493 64.5049 96.2446 63.0002 94.3743 63.0002C92.5041 63.0002 90.9994 64.5049 90.9994 66.3751V72C90.9994 74.9812 90.2822 77.7796 89.0026 80.2545L86.4995 78.2999V49.5005C86.4995 42.0475 80.4528 36.0008 72.9998 36.0008C65.5468 36.0008 59.5001 42.0475 59.5001 49.5005V57.1363L33.4569 36.718ZM76.3747 96.5245C79.2434 96.1307 81.9574 95.2448 84.4324 93.9651L78.3716 89.1981C76.67 89.7184 74.8701 89.9996 72.9998 89.9996C63.0578 89.9996 55.0002 81.942 55.0002 72V70.7766L48.3488 65.5314C48.2785 65.7986 48.2503 66.0798 48.2503 66.3751V72C48.2503 84.5294 57.5595 94.8792 69.6249 96.5245V101.249H62.875C61.0048 101.249 59.5001 102.754 59.5001 104.624C59.5001 106.495 61.0048 107.999 62.875 107.999H72.9998H83.1246C84.9949 107.999 86.4995 106.495 86.4995 104.624C86.4995 102.754 84.9949 101.249 83.1246 101.249H76.3747V96.5245Z" fill="#A6A6A6"/>
</svg>
